
		<svg xmlns="http://www.w3.org/2000/svg" xmlns:xlink="http://www.w3.org/1999/xlink" version="1.1" width="3192.3076923076924" height="2586.5384615384614">
			
			<g transform="scale(9.615384615384615) translate(10, 10)">
				<defs id="SvgjsDefs1127"><linearGradient id="SvgjsLinearGradient1133"><stop id="SvgjsStop1134" stop-color="#b88746" offset="0"/><stop id="SvgjsStop1135" stop-color="#fdf5a6" offset="1"/></linearGradient><linearGradient id="SvgjsLinearGradient1136"><stop id="SvgjsStop1137" stop-color="#b88746" offset="0"/><stop id="SvgjsStop1138" stop-color="#fdf5a6" offset="1"/></linearGradient><linearGradient id="SvgjsLinearGradient1139"><stop id="SvgjsStop1140" stop-color="#786756" offset="0"/><stop id="SvgjsStop1141" stop-color="#847361" offset="0.33"/><stop id="SvgjsStop1142" stop-color="#a8a49b" offset="0.67"/><stop id="SvgjsStop1143" stop-color="#d6d6d6" offset="1"/></linearGradient></defs><g id="SvgjsG1128" featureKey="root" fill="#fff"/><g id="SvgjsG1129" featureKey="container1" fill="#fff" transform="matrix(2.268144184419614,0,0,2.268144184419614,100.00001668910896,0.009466565526911226)">   <title xmlns="http://www.w3.org/2000/svg">Untitled-1</title>   <path xmlns="http://www.w3.org/2000/svg" d="M23.11,55.78L1.69,43.41A3.39,3.39,0,0,1,0,40.48V15.75a3.39,3.39,0,0,1,1.69-2.94L23.11,0.45a3.39,3.39,0,0,1,3.39,0L47.91,12.82a3.39,3.39,0,0,1,1.69,2.94V40.48a3.39,3.39,0,0,1-1.69,2.94L26.5,55.78A3.39,3.39,0,0,1,23.11,55.78Z"/> </g><g id="SvgjsG1130" featureKey="symbol1" fill="#000000" transform="matrix(1.1986301056684179,0,0,1.1986301056684179,116.44520565561515,24.003424450053267)"><g xmlns="http://www.w3.org/2000/svg"><g><path d="M32.1,26.4c0.5-0.3,1-0.7,1.4-1.1v1.3l-1.3,0.7C32.2,27,32.2,26.7,32.1,26.4z"/></g><g><path d="M45.1,53l0.1,0.3c-5,5.3-9.4,5.7-14.9,10.2H3.8v-0.1c3.4-2.4,20-14.3,20-20.4c0.1-8.9,0.9-19.1,2-20.4c0,0,0,0,0,0    c0.2-0.1,5-2.3,8.4-5.3c0.3-0.3,0.8-0.6,1-0.7c0,0.1,0.1,0.3,0.1,0.5c0.2,2-2.4,7.1-4.7,7.8c-0.5,0.2-0.8,0.7-0.6,1.2    c0.3,1,0.4,2.2,0.3,2.5c-0.2,0.4-0.1,0.9,0.2,1.2c0.3,0.3,0.8,0.4,1.2,0.2l1.9-1v20.3c0,2.1,1.7,3.8,3.8,3.8H45.1z"/></g><g><path d="M58.2,5.8H35.5V4.3c0-1,0.8-1.8,1.8-1.8h19c1,0,1.8,0.8,1.8,1.8V5.8z"/></g><g><path d="M45.3,23.8c0.3-0.3,0.7-0.4,1.2-0.4v2.8c-0.6-0.2-1-0.4-1.3-0.6c-0.2-0.2-0.3-0.5-0.3-0.9C44.9,24.3,45.1,24,45.3,23.8z"/></g><g><path d="M48.9,29.1c0.2,0.2,0.4,0.5,0.4,0.9c0,0.4-0.2,0.7-0.5,1c-0.3,0.3-0.7,0.4-1.3,0.5v-3C48.2,28.7,48.7,28.9,48.9,29.1z"/></g><g><path d="M57.7,14.1h0.5V7.8H35.5v6.8c0.1,0,0.2,0,0.3,0.1c1.7,0.6,1.7,3.3,1.1,5c-0.3,0.8-0.8,1.9-1.4,3c0,0.1,0,0.1,0,0.2v22.8    h22.7v-2.4h-0.5c-2,0-3.5-1.6-3.5-3.5c0-2,1.6-3.6,3.5-3.6h0.5v-0.2h-0.5c-2,0-3.5-1.6-3.5-3.6c0-2,1.6-3.6,3.5-3.6h0.5v-0.2h-0.5    c-2,0-3.5-1.6-3.5-3.6c0-2,1.6-3.5,3.5-3.5h0.5v-0.2h-0.5c-2,0-3.5-1.6-3.5-3.5C54.2,15.7,55.8,14.1,57.7,14.1z M50.2,32.2    c-0.7,0.6-1.6,0.9-2.7,1v1.2h-1v-1.2c-1.5-0.2-2.8-0.8-4-1.8l1.2-1.4c0.9,0.8,1.9,1.3,2.8,1.4v-3.2c-1.2-0.3-2.1-0.7-2.7-1.2    c-0.6-0.5-0.9-1.2-0.9-2.1c0-1,0.3-1.7,1-2.3c0.7-0.6,1.5-0.9,2.6-1v-0.8h1v0.8c1.2,0.1,2.3,0.5,3.4,1.2l-1.1,1.5    c-0.7-0.5-1.5-0.8-2.4-0.9v3.1h0.1c1.3,0.3,2.2,0.7,2.8,1.2c0.6,0.5,0.9,1.2,0.9,2.2C51.3,30.8,50.9,31.6,50.2,32.2z"/></g><g><path d="M35.5,47.7h22.7v1.5c0,1-0.8,1.8-1.8,1.8h-19c-1,0-1.9-0.8-1.9-1.9V47.7z"/></g><g><path d="M62.2,39.7c0,0.8-0.7,1.5-1.5,1.5c-1.3-0.2-4.5,0.7-4.5-1.5c0-0.9,0.7-1.6,1.5-1.6h2.9C61.5,38.1,62.2,38.8,62.2,39.7z"/></g><g><path d="M62.2,32.4c0,0.8-0.7,1.6-1.5,1.6h-2.9c-0.9,0-1.5-0.7-1.5-1.6c0-0.9,0.7-1.6,1.5-1.6h2.9C61.5,30.8,62.2,31.5,62.2,32.4z    "/></g><g><path d="M62.2,25c0,0.8-0.7,1.6-1.5,1.6h-2.9c-0.9,0-1.5-0.7-1.5-1.6c0-0.9,0.7-1.5,1.5-1.5h2.9C61.5,23.5,62.2,24.2,62.2,25z"/></g><g><path d="M57.7,16.1h2.9c0.9,0,1.5,0.7,1.5,1.5c0,0.8-0.7,1.5-1.5,1.5h-2.9c-0.5,0-0.9-0.3-1.1-0.5c0,0,0,0,0,0    C55.7,17.9,56.3,16.1,57.7,16.1z"/></g></g></g><g id="SvgjsG1131" featureKey="text1" fill="#fff" transform="matrix(4.144681019262802,0,0,4.144681019262802,-6.299921493324179,124.84258346730428)"><path d="M17.38 15.92 q0 3.16 -2.2 5.48 q0.08 0.12 0.34 0.47 t0.53 0.72 t0.48 0.7 t0.21 0.41 q0 0.12 -0.09 0.21 t-0.21 0.09 q-0.18 0 -0.26 -0.12 q-0.1 -0.14 -0.45 -0.62 t-0.81 -1.12 t-0.98 -1.35 t-0.95 -1.33 t-0.71 -1.05 t-0.28 -0.49 q0 -0.12 0.09 -0.21 t0.21 -0.09 q0.18 0 0.26 0.14 l2.24 3.12 q0.96 -1.02 1.45 -2.29 t0.49 -2.67 q0 -1.5 -0.58 -2.83 t-1.57 -2.32 t-2.32 -1.57 t-2.83 -0.58 t-2.83 0.58 t-2.32 1.57 t-1.57 2.32 t-0.58 2.83 t0.58 2.83 t1.57 2.32 t2.32 1.57 t2.83 0.58 q0.86 0 1.68 -0.21 t1.6 -0.55 q-0.08 -0.12 -0.35 -0.48 t-0.62 -0.85 t-0.73 -1.02 t-0.71 -1 t-0.54 -0.79 t-0.21 -0.38 q0 -0.12 0.09 -0.22 t0.23 -0.1 q0.18 0 0.26 0.14 q0.06 0.1 0.39 0.56 t0.79 1.11 t0.98 1.38 t0.96 1.35 t0.73 1.06 t0.29 0.48 q0 0.12 -0.09 0.21 t-0.21 0.09 t-0.25 -0.13 t-0.25 -0.3 t-0.23 -0.34 t-0.17 -0.27 q-0.84 0.44 -1.76 0.67 t-1.88 0.23 q-1.66 0 -3.1 -0.62 t-2.51 -1.7 t-1.69 -2.52 t-0.62 -3.1 q0 -1.64 0.62 -3.08 t1.7 -2.52 t2.52 -1.7 t3.08 -0.62 t3.09 0.62 t2.53 1.69 t1.7 2.52 t0.62 3.09 z M29.78 20.04 q0 0.8 -0.3 1.52 t-0.83 1.26 t-1.24 0.86 t-1.51 0.32 l-1.54 0 q-0.82 0 -1.54 -0.31 t-1.26 -0.85 t-0.85 -1.26 t-0.31 -1.54 l0 -11.74 q0 -0.12 0.09 -0.21 t0.21 -0.09 t0.21 0.09 t0.09 0.21 l0 11.74 q0 0.68 0.27 1.29 t0.73 1.07 t1.07 0.73 t1.29 0.27 l1.54 0 q0.68 0 1.28 -0.27 t1.04 -0.73 t0.7 -1.07 t0.26 -1.29 l0 -11.74 q0 -0.12 0.09 -0.21 t0.21 -0.09 t0.21 0.09 t0.09 0.21 l0 11.74 z M49.42 16 q0 1.66 -0.63 3.12 t-1.71 2.54 t-2.54 1.71 t-3.12 0.63 t-3.12 -0.63 t-2.54 -1.71 t-1.71 -2.54 t-0.63 -3.12 t0.63 -3.12 t1.71 -2.54 t2.54 -1.71 t3.12 -0.63 t3.12 0.63 t2.54 1.71 t1.71 2.54 t0.63 3.12 z M48.8 16 q0 -1.52 -0.58 -2.86 t-1.59 -2.35 t-2.35 -1.59 t-2.86 -0.58 t-2.86 0.58 t-2.35 1.59 t-1.59 2.35 t-0.58 2.86 t0.58 2.86 t1.59 2.35 t2.35 1.59 t2.86 0.58 t2.86 -0.58 t2.35 -1.59 t1.59 -2.35 t0.58 -2.86 z M62.900000000000006 8.3 q0 0.12 -0.09 0.21 t-0.21 0.09 l-9.84 0 q-0.12 0 -0.21 -0.09 t-0.09 -0.21 t0.09 -0.21 t0.21 -0.09 l9.84 0 q0.12 0 0.21 0.09 t0.09 0.21 z M63 10.24 q0 0.12 -0.09 0.22 t-0.21 0.1 l-4.64 0 l0 13.14 q0 0.12 -0.1 0.21 t-0.22 0.09 t-0.22 -0.08 t-0.1 -0.22 l0 -13.14 l-4.66 0 q-0.12 0 -0.21 -0.1 t-0.09 -0.22 t0.08 -0.23 t0.22 -0.11 l9.94 0 q0.14 0 0.22 0.11 t0.08 0.23 z M76.72 23.66 q0 0.12 -0.08 0.23 t-0.22 0.11 l-9.8 0 q-0.14 0 -0.23 -0.1 t-0.09 -0.24 l0 -15.36 q0 -0.14 0.1 -0.22 t0.22 -0.08 l9.8 0 q0.12 0 0.21 0.09 t0.09 0.21 t-0.09 0.21 t-0.21 0.09 l-9.52 0 l0 6.22 l7.42 0 q0.12 0 0.21 0.09 t0.09 0.21 t-0.09 0.21 t-0.21 0.09 l-7.38 0 l-0.02 1.36 l7.48 0 q0.32 0 0.32 0.32 q0 0.12 -0.1 0.22 t-0.22 0.1 l-7.5 0 l0 5.9 l9.52 0 q0.12 0 0.21 0.11 t0.09 0.23 z"/></g><g id="SvgjsG1132" featureKey="text3" fill="#fff" transform="matrix(0.5252235652890975,0,0,0.5252235652890975,70.58961230096193,234.29134110439924)"><path d="M8.6719 11.914375 q-0.3125 -0.4296875 -0.6884765625 -0.6591796875 t-0.8252 -0.35156 t-0.89844 -0.12207 q-0.7421875 0 -1.298828125 0.1708984375 t-0.92285 0.46387 t-0.55176 0.68359 t-0.18555 0.82031 q0 0.64453125 0.2294921875 1.040039063 t0.58105 0.63477 t0.77637 0.37598 t0.81543 0.27344 l1.9727 0.64453 q0.888671875 0.283203125 1.567382813 0.64453125 t1.1377 0.85449 t0.69824 1.1377 t0.23926 1.4941 q0 0.91796875 -0.3759765625 1.69921875 t-1.0498 1.3574 t-1.6064 0.90332 t-2.0459 0.32715 q-1.142578125 0 -1.953125 -0.2587890625 t-1.3623 -0.69336 t-0.88379 -0.99121 t-0.51758 -1.1426 l-0.74219 0 l0 -1.6797 l2.4609 0 q0 1.083984375 0.2294921875 1.533203125 t0.63965 0.74707 t0.97656 0.44922 t1.25 0.15137 q0.6640625 0 1.196289063 -0.15625 t0.9082 -0.4541 t0.57617 -0.72266 t0.2002 -0.96191 q0 -0.595703125 -0.2490234375 -1.010742188 t-0.63965 -0.70801 t-0.85449 -0.47852 t-0.89355 -0.32227 l-2.1387 -0.60547 q-0.703125 -0.21484375 -1.284179688 -0.546875 t-0.99609 -0.81055 t-0.63965 -1.1182 t-0.22461 -1.4795 q0 -0.849609375 0.33203125 -1.591796875 t0.97656 -1.2988 t1.5771 -0.87402 t2.1338 -0.31738 q0.791015625 0 1.459960938 0.185546875 t1.2109 0.52246 t0.95703 0.81055 t0.69824 1.04 l0.73242 0 l0 1.6797 l-2.3926 0 q0 -0.859375 -0.3125 -1.2890625 z M13.21290625 22.304675 l1.4063 0 l0 -11.26 l-1.4063 0 l0 -1.8652 l4.6875 0 l4.6973 12.783 l4.7559 -12.783 l4.4434 0 l0 1.8652 l-1.3965 0 l0 11.26 l1.3965 0 l0 1.6797 l-4.8047 0 l0 -1.6797 l1.582 0 l0 -11.367 l-5.1758 13.047 l-1.6602 0 l-5.2441 -13.076 l0 11.396 l1.5234 0 l0 1.6797 l-4.8047 0 l0 -1.6797 z M43.349359375 22.304675 l1.2305 0 l-1.1719 -3.3594 l-5.6934 0 l-1.1426 3.3594 l1.5234 0 l0 1.6797 l-4.8047 0 l0 -1.6797 l1.2891 0 l4.6094 -13.125 l2.8809 0 l4.5996 13.125 l1.4844 0 l0 1.6797 l-4.8047 0 l0 -1.6797 z M38.271459375 17.324175 l4.5703 0 l-2.3047 -6.6211 z M49.648453125 9.179375 l6.1621 0 q0.986328125 0 1.821289063 0.2587890625 t1.4453 0.76172 t0.95215 1.2549 t0.3418 1.7285 q0 0.556640625 -0.2001953125 1.098632813 t-0.55664 1.0059 t-0.84473 0.8252 t-1.0645 0.55664 q0.244140625 0.107421875 0.4931640625 0.3076171875 t0.46875 0.48828 t0.40039 0.6543 t0.28809 0.78613 l0.82031 3.2227 l1.2793 0 l0.019531 1.8555 l-2.8809 0 l-1.1035 -4.502 q-0.302734375 -1.2109375 -0.9228515625 -1.782226563 t-1.6943 -0.57129 l-1.9043 0 l0 5.1758 l1.4844 0 l0 1.6797 l-4.8047 0 l0 -1.6797 l1.4063 0 l0 -11.436 l-1.4063 0 l0 -1.6895 z M52.968753125 10.869375 l0 4.6582 l2.8418 0 q0.556640625 0 1.020507813 -0.146484375 t0.80078 -0.43945 t0.52734 -0.72754 t0.19043 -1.0107 q0 -1.103515625 -0.6640625 -1.71875 t-2.1094 -0.61523 l-2.6074 0 z M66.914034375 22.304675 l1.3574 0 l0 -11.523 l-3.3789 0 l0 2.3047 l-2.002 0 l0 -3.9063 l13.203 0 l0 3.9063 l-2.002 0 l0 -2.3047 l-3.9063 0 l0 11.523 l1.5234 0 l0 1.6797 l-4.7949 0 l0 -1.6797 z M77.890640625 9.179375 l10.605 0 l0 4.1895 l-2.002 0 l0 -2.5 l-5.2832 0 l0 4.7363 l4.4434 0 l0 1.6797 l-4.4434 0 l0 5.0195 l5.2832 0 l0 -2.5 l2.002 0 l0 4.1797 l-10.605 0 l0 -1.6797 l1.4063 0 l0 -11.436 l-1.4063 0 l0 -1.6895 z M90.449234375 9.179375 l6.1621 0 q0.986328125 0 1.821289063 0.2587890625 t1.4453 0.76172 t0.95215 1.2549 t0.3418 1.7285 q0 0.556640625 -0.2001953125 1.098632813 t-0.55664 1.0059 t-0.84473 0.8252 t-1.0645 0.55664 q0.244140625 0.107421875 0.4931640625 0.3076171875 t0.46875 0.48828 t0.40039 0.6543 t0.28809 0.78613 l0.82031 3.2227 l1.2793 0 l0.019531 1.8555 l-2.8809 0 l-1.1035 -4.502 q-0.302734375 -1.2109375 -0.9228515625 -1.782226563 t-1.6943 -0.57129 l-1.9043 0 l0 5.1758 l1.4844 0 l0 1.6797 l-4.8047 0 l0 -1.6797 l1.4063 0 l0 -11.436 l-1.4063 0 l0 -1.6895 z M93.769534375 10.869375 l0 4.6582 l2.8418 0 q0.556640625 0 1.020507813 -0.146484375 t0.80078 -0.43945 t0.52734 -0.72754 t0.19043 -1.0107 q0 -1.103515625 -0.6640625 -1.71875 t-2.1094 -0.61523 l-2.6074 0 z M105.293015625 21.220675 l2.1387 0.83984 l-2.5391 5.2441 l-1.4063 -0.51758 z M108.84765625 23.984375 z M114.61915625 9.179375 l10.605 0 l0 4.1895 l-2.002 0 l0 -2.5 l-5.2832 0 l0 4.7559 l5.0879 0 l0 1.6406 l-5.0879 0 l0 5.0391 l1.4844 0 l0 1.6797 l-4.8047 0 l0 -1.6797 l1.4063 0 l0 -11.436 l-1.4063 0 l0 -1.6895 z M135.517328125 22.304675 l1.2305 0 l-1.1719 -3.3594 l-5.6934 0 l-1.1426 3.3594 l1.5234 0 l0 1.6797 l-4.8047 0 l0 -1.6797 l1.2891 0 l4.6094 -13.125 l2.8809 0 l4.5996 13.125 l1.4844 0 l0 1.6797 l-4.8047 0 l0 -1.6797 z M130.439428125 17.324175 l4.5703 0 l-2.3047 -6.6211 z M149.091821875 11.914375 q-0.3125 -0.4296875 -0.6884765625 -0.6591796875 t-0.8252 -0.35156 t-0.89844 -0.12207 q-0.7421875 0 -1.298828125 0.1708984375 t-0.92285 0.46387 t-0.55176 0.68359 t-0.18555 0.82031 q0 0.64453125 0.2294921875 1.040039063 t0.58105 0.63477 t0.77637 0.37598 t0.81543 0.27344 l1.9727 0.64453 q0.888671875 0.283203125 1.567382813 0.64453125 t1.1377 0.85449 t0.69824 1.1377 t0.23926 1.4941 q0 0.91796875 -0.3759765625 1.69921875 t-1.0498 1.3574 t-1.6064 0.90332 t-2.0459 0.32715 q-1.142578125 0 -1.953125 -0.2587890625 t-1.3623 -0.69336 t-0.88379 -0.99121 t-0.51758 -1.1426 l-0.74219 0 l0 -1.6797 l2.4609 0 q0 1.083984375 0.2294921875 1.533203125 t0.63965 0.74707 t0.97656 0.44922 t1.25 0.15137 q0.6640625 0 1.196289063 -0.15625 t0.9082 -0.4541 t0.57617 -0.72266 t0.2002 -0.96191 q0 -0.595703125 -0.2490234375 -1.010742188 t-0.63965 -0.70801 t-0.85449 -0.47852 t-0.89355 -0.32227 l-2.1387 -0.60547 q-0.703125 -0.21484375 -1.284179688 -0.546875 t-0.99609 -0.81055 t-0.63965 -1.1182 t-0.22461 -1.4795 q0 -0.849609375 0.33203125 -1.591796875 t0.97656 -1.2988 t1.5771 -0.87402 t2.1338 -0.31738 q0.791015625 0 1.459960938 0.185546875 t1.2109 0.52246 t0.95703 0.81055 t0.69824 1.04 l0.73242 0 l0 1.6797 l-2.3926 0 q0 -0.859375 -0.3125 -1.2890625 z M156.660128125 22.304675 l1.3574 0 l0 -11.523 l-3.3789 0 l0 2.3047 l-2.002 0 l0 -3.9063 l13.203 0 l0 3.9063 l-2.002 0 l0 -2.3047 l-3.9063 0 l0 11.523 l1.5234 0 l0 1.6797 l-4.7949 0 l0 -1.6797 z M167.636734375 9.179375 l10.605 0 l0 4.1895 l-2.002 0 l0 -2.5 l-5.2832 0 l0 4.7363 l4.4434 0 l0 1.6797 l-4.4434 0 l0 5.0195 l5.2832 0 l0 -2.5 l2.002 0 l0 4.1797 l-10.605 0 l0 -1.6797 l1.4063 0 l0 -11.436 l-1.4063 0 l0 -1.6895 z M180.195328125 9.179375 l6.1621 0 q0.986328125 0 1.821289063 0.2587890625 t1.4453 0.76172 t0.95215 1.2549 t0.3418 1.7285 q0 0.556640625 -0.2001953125 1.098632813 t-0.55664 1.0059 t-0.84473 0.8252 t-1.0645 0.55664 q0.244140625 0.107421875 0.4931640625 0.3076171875 t0.46875 0.48828 t0.40039 0.6543 t0.28809 0.78613 l0.82031 3.2227 l1.2793 0 l0.019531 1.8555 l-2.8809 0 l-1.1035 -4.502 q-0.302734375 -1.2109375 -0.9228515625 -1.782226563 t-1.6943 -0.57129 l-1.9043 0 l0 5.1758 l1.4844 0 l0 1.6797 l-4.8047 0 l0 -1.6797 l1.4063 0 l0 -11.436 l-1.4063 0 l0 -1.6895 z M183.515628125 10.869375 l0 4.6582 l2.8418 0 q0.556640625 0 1.020507813 -0.146484375 t0.80078 -0.43945 t0.52734 -0.72754 t0.19043 -1.0107 q0 -1.103515625 -0.6640625 -1.71875 t-2.1094 -0.61523 l-2.6074 0 z M193.037109375 23.984375 z M198.808609375 9.179375 l4.7266 0 l0 1.6895 l-1.4063 0 l0 11.436 l1.4063 0 l0 1.6797 l-4.7266 0 l0 -1.6797 l1.4063 0 l0 -11.436 l-1.4063 0 l0 -1.6895 z M215.488640625 9.179375 l4.8047 0 l0 1.6895 l-1.2598 0 l0 13.115 l-2.5 0 l-6.8848 -12.275 l0 10.596 l1.5234 0 l0 1.6797 l-4.8047 0 l0 -1.6797 l1.3672 0 l0 -11.436 l-1.4063 0 l0 -1.709 l3.9844 0 l6.7578 12.158 l0.078125 -0.46875 l0 -9.9805 l-1.6602 0 l0 -1.6895 z M220.791015625 23.984375 z M226.562515625 22.304675 l1.4063 0 l0 -11.436 l-1.4063 0 l0 -1.709 l6.6602 0.019531 q0.8984375 0 1.689453125 0.3369140625 t1.377 0.91797 t0.92285 1.3721 t0.33691 1.6992 q0 0.947265625 -0.52734375 1.728515625 t-1.5039 1.25 q0.478515625 0.25390625 0.869140625 0.5908203125 t0.66406 0.7373 t0.4248 0.84961 t0.15137 0.91797 q0 0.927734375 -0.3369140625 1.728515625 t-0.92285 1.3965 t-1.3721 0.9375 t-1.6846 0.3418 l-6.748 0 l0 -1.6797 z M229.882815625 17.402375 l0 4.9023 l3.4473 0 q0.46875 0 0.869140625 -0.234375 t0.70313 -0.61035 t0.47363 -0.85449 t0.1709 -0.97656 q0 -0.4296875 -0.17578125 -0.830078125 t-0.47363 -0.71289 t-0.70313 -0.49805 t-0.86426 -0.18555 l-3.4473 0 z M229.882815625 10.869375 l0 4.834 l3.3594 0 q0.46875 0 0.8740234375 -0.185546875 t0.70313 -0.49805 t0.47363 -0.72266 t0.17578 -0.84961 q0 -0.478515625 -0.17578125 -0.9423828125 t-0.47852 -0.8252 t-0.70801 -0.58594 t-0.86426 -0.22461 l-3.3594 0 z M239.472640625 9.179375 l4.7949 0 l0 1.6895 l-1.5137 0 l0 6.8945 q0 1.240234375 0.2783203125 2.114257813 t0.77148 1.4258 t1.1719 0.80566 t1.4893 0.25391 q0.83984375 0 1.54296875 -0.224609375 t1.2061 -0.75684 t0.78125 -1.416 t0.27832 -2.2021 l0 -6.8945 l-1.6016 0 l0 -1.6895 l4.7949 0 l0 1.6895 l-1.3184 0 l0 6.6797 q0 1.6015625 -0.4443359375 2.841796875 t-1.2158 2.0801 t-1.8164 1.2744 t-2.2461 0.43457 q-1.171875 0 -2.192382813 -0.4296875 t-1.7773 -1.2598 t-1.1914 -2.0264 t-0.43457 -2.7393 l0 -6.8555 l-1.3574 0 l0 -1.6895 z M262.177759375 11.914375 q-0.3125 -0.4296875 -0.6884765625 -0.6591796875 t-0.8252 -0.35156 t-0.89844 -0.12207 q-0.7421875 0 -1.298828125 0.1708984375 t-0.92285 0.46387 t-0.55176 0.68359 t-0.18555 0.82031 q0 0.64453125 0.2294921875 1.040039063 t0.58105 0.63477 t0.77637 0.37598 t0.81543 0.27344 l1.9727 0.64453 q0.888671875 0.283203125 1.567382813 0.64453125 t1.1377 0.85449 t0.69824 1.1377 t0.23926 1.4941 q0 0.91796875 -0.3759765625 1.69921875 t-1.0498 1.3574 t-1.6064 0.90332 t-2.0459 0.32715 q-1.142578125 0 -1.953125 -0.2587890625 t-1.3623 -0.69336 t-0.88379 -0.99121 t-0.51758 -1.1426 l-0.74219 0 l0 -1.6797 l2.4609 0 q0 1.083984375 0.2294921875 1.533203125 t0.63965 0.74707 t0.97656 0.44922 t1.25 0.15137 q0.6640625 0 1.196289063 -0.15625 t0.9082 -0.4541 t0.57617 -0.72266 t0.2002 -0.96191 q0 -0.595703125 -0.2490234375 -1.010742188 t-0.63965 -0.70801 t-0.85449 -0.47852 t-0.89355 -0.32227 l-2.1387 -0.60547 q-0.703125 -0.21484375 -1.284179688 -0.546875 t-0.99609 -0.81055 t-0.63965 -1.1182 t-0.22461 -1.4795 q0 -0.849609375 0.33203125 -1.591796875 t0.97656 -1.2988 t1.5771 -0.87402 t2.1338 -0.31738 q0.791015625 0 1.459960938 0.185546875 t1.2109 0.52246 t0.95703 0.81055 t0.69824 1.04 l0.73242 0 l0 1.6797 l-2.3926 0 q0 -0.859375 -0.3125 -1.2890625 z M266.718765625 9.179375 l4.7266 0 l0 1.6895 l-1.4063 0 l0 11.436 l1.4063 0 l0 1.6797 l-4.7266 0 l0 -1.6797 l1.4063 0 l0 -11.436 l-1.4063 0 l0 -1.6895 z M283.398796875 9.179375 l4.8047 0 l0 1.6895 l-1.2598 0 l0 13.115 l-2.5 0 l-6.8848 -12.275 l0 10.596 l1.5234 0 l0 1.6797 l-4.8047 0 l0 -1.6797 l1.3672 0 l0 -11.436 l-1.4063 0 l0 -1.709 l3.9844 0 l6.7578 12.158 l0.078125 -0.46875 l0 -9.9805 l-1.6602 0 l0 -1.6895 z M290.097671875 9.179375 l10.605 0 l0 4.1895 l-2.002 0 l0 -2.5 l-5.2832 0 l0 4.7363 l4.4434 0 l0 1.6797 l-4.4434 0 l0 5.0195 l5.2832 0 l0 -2.5 l2.002 0 l0 4.1797 l-10.605 0 l0 -1.6797 l1.4063 0 l0 -11.436 l-1.4063 0 l0 -1.6895 z M309.931665625 11.914375 q-0.3125 -0.4296875 -0.6884765625 -0.6591796875 t-0.8252 -0.35156 t-0.89844 -0.12207 q-0.7421875 0 -1.298828125 0.1708984375 t-0.92285 0.46387 t-0.55176 0.68359 t-0.18555 0.82031 q0 0.64453125 0.2294921875 1.040039063 t0.58105 0.63477 t0.77637 0.37598 t0.81543 0.27344 l1.9727 0.64453 q0.888671875 0.283203125 1.567382813 0.64453125 t1.1377 0.85449 t0.69824 1.1377 t0.23926 1.4941 q0 0.91796875 -0.3759765625 1.69921875 t-1.0498 1.3574 t-1.6064 0.90332 t-2.0459 0.32715 q-1.142578125 0 -1.953125 -0.2587890625 t-1.3623 -0.69336 t-0.88379 -0.99121 t-0.51758 -1.1426 l-0.74219 0 l0 -1.6797 l2.4609 0 q0 1.083984375 0.2294921875 1.533203125 t0.63965 0.74707 t0.97656 0.44922 t1.25 0.15137 q0.6640625 0 1.196289063 -0.15625 t0.9082 -0.4541 t0.57617 -0.72266 t0.2002 -0.96191 q0 -0.595703125 -0.2490234375 -1.010742188 t-0.63965 -0.70801 t-0.85449 -0.47852 t-0.89355 -0.32227 l-2.1387 -0.60547 q-0.703125 -0.21484375 -1.284179688 -0.546875 t-0.99609 -0.81055 t-0.63965 -1.1182 t-0.22461 -1.4795 q0 -0.849609375 0.33203125 -1.591796875 t0.97656 -1.2988 t1.5771 -0.87402 t2.1338 -0.31738 q0.791015625 0 1.459960938 0.185546875 t1.2109 0.52246 t0.95703 0.81055 t0.69824 1.04 l0.73242 0 l0 1.6797 l-2.3926 0 q0 -0.859375 -0.3125 -1.2890625 z M321.748071875 11.914375 q-0.3125 -0.4296875 -0.6884765625 -0.6591796875 t-0.8252 -0.35156 t-0.89844 -0.12207 q-0.7421875 0 -1.298828125 0.1708984375 t-0.92285 0.46387 t-0.55176 0.68359 t-0.18555 0.82031 q0 0.64453125 0.2294921875 1.040039063 t0.58105 0.63477 t0.77637 0.37598 t0.81543 0.27344 l1.9727 0.64453 q0.888671875 0.283203125 1.567382813 0.64453125 t1.1377 0.85449 t0.69824 1.1377 t0.23926 1.4941 q0 0.91796875 -0.3759765625 1.69921875 t-1.0498 1.3574 t-1.6064 0.90332 t-2.0459 0.32715 q-1.142578125 0 -1.953125 -0.2587890625 t-1.3623 -0.69336 t-0.88379 -0.99121 t-0.51758 -1.1426 l-0.74219 0 l0 -1.6797 l2.4609 0 q0 1.083984375 0.2294921875 1.533203125 t0.63965 0.74707 t0.97656 0.44922 t1.25 0.15137 q0.6640625 0 1.196289063 -0.15625 t0.9082 -0.4541 t0.57617 -0.72266 t0.2002 -0.96191 q0 -0.595703125 -0.2490234375 -1.010742188 t-0.63965 -0.70801 t-0.85449 -0.47852 t-0.89355 -0.32227 l-2.1387 -0.60547 q-0.703125 -0.21484375 -1.284179688 -0.546875 t-0.99609 -0.81055 t-0.63965 -1.1182 t-0.22461 -1.4795 q0 -0.849609375 0.33203125 -1.591796875 t0.97656 -1.2988 t1.5771 -0.87402 t2.1338 -0.31738 q0.791015625 0 1.459960938 0.185546875 t1.2109 0.52246 t0.95703 0.81055 t0.69824 1.04 l0.73242 0 l0 1.6797 l-2.3926 0 q0 -0.859375 -0.3125 -1.2890625 z"/></g>
			</g>
		</svg>
	