<svg id="svg" version="1.1" width="400" height="266.6666666666667" viewBox="0 0 400 266.6666666666667" xmlns="http://www.w3.org/2000/svg" xmlns:xlink="http://www.w3.org/1999/xlink" ><g id="svgg"><path id="path0" d="M210.933 7.258 C 210.933 7.364,210.770 7.387,210.571 7.311 C 210.139 7.145,209.464 8.594,209.695 9.195 C 209.826 9.537,190.958 9.931,189.239 9.622 C 188.749 9.534,188.352 10.171,188.317 11.101 C 188.270 12.355,188.643 12.240,184.466 12.282 C 180.504 12.321,180.395 12.362,180.306 13.853 C 180.235 15.027,180.591 14.914,176.852 14.951 C 175.063 14.969,173.600 15.088,173.600 15.217 C 173.600 15.345,173.437 15.387,173.238 15.311 C 172.805 15.145,172.131 16.594,172.361 17.195 C 172.498 17.551,169.246 17.863,167.905 17.622 C 167.415 17.534,167.018 18.171,166.983 19.101 C 166.937 20.338,167.154 20.236,164.461 20.289 C 162.265 20.332,161.505 20.586,161.622 21.239 C 161.870 22.621,161.620 22.933,160.267 22.933 L 158.933 22.933 158.933 24.267 L 158.933 25.600 157.533 25.630 C 156.763 25.646,155.863 25.637,155.533 25.610 C 155.203 25.584,154.933 25.687,154.933 25.839 C 154.933 25.992,154.770 26.054,154.571 25.978 C 154.151 25.816,153.516 27.138,153.648 27.901 C 153.717 28.304,153.592 28.383,153.000 28.314 C 152.597 28.267,152.267 28.353,152.267 28.506 C 152.267 28.658,152.104 28.721,151.905 28.644 C 151.484 28.483,150.850 29.804,150.981 30.568 C 151.050 30.971,150.925 31.050,150.333 30.981 C 149.930 30.934,149.600 31.020,149.600 31.173 C 149.600 31.325,149.437 31.387,149.238 31.311 C 148.861 31.166,148.186 32.426,148.279 33.101 C 148.307 33.302,148.316 34.090,148.298 34.852 L 148.267 36.237 147.000 36.319 L 145.733 36.400 145.652 37.667 C 145.569 38.965,145.327 39.137,143.836 38.961 C 143.494 38.921,142.894 39.565,142.956 39.905 C 143.297 41.805,142.885 44.450,142.267 44.332 C 141.887 44.259,141.600 44.329,141.600 44.494 C 141.600 44.653,141.437 44.721,141.238 44.644 C 140.861 44.500,140.186 45.760,140.279 46.435 C 140.307 46.636,140.316 48.623,140.298 50.852 L 140.267 54.904 139.000 54.985 L 137.733 55.067 137.664 65.667 L 137.594 76.267 136.425 76.267 C 134.885 76.267,134.933 76.033,134.933 83.451 L 134.933 89.793 134.267 89.665 C 133.887 89.593,133.600 89.662,133.600 89.827 C 133.600 89.986,133.441 90.056,133.247 89.981 C 132.702 89.772,132.342 90.884,132.298 92.916 C 132.251 95.076,132.345 94.902,131.186 94.972 C 129.541 95.071,129.621 94.403,129.605 108.291 C 129.592 120.316,129.619 121.069,130.062 121.112 C 130.321 121.137,130.713 121.185,130.933 121.217 C 131.153 121.250,131.543 121.289,131.800 121.305 C 132.210 121.330,132.267 121.643,132.267 123.867 C 132.267 126.084,132.325 126.406,132.733 126.446 C 132.990 126.471,133.380 126.518,133.600 126.551 C 133.820 126.583,134.203 126.623,134.452 126.638 C 134.797 126.660,134.923 126.966,134.985 127.933 L 135.067 129.200 136.333 129.281 L 137.600 129.363 137.600 130.681 L 137.600 132.000 138.919 132.000 L 140.237 132.000 140.319 133.267 L 140.400 134.533 141.772 134.613 C 142.982 134.683,143.127 134.754,143.007 135.212 C 142.818 135.935,143.619 137.057,144.337 137.076 C 149.726 137.219,150.933 137.380,150.954 137.957 C 151.013 139.635,151.129 139.773,152.513 139.825 L 153.597 139.867 153.598 145.496 L 153.600 151.126 152.933 150.999 C 152.553 150.926,152.267 150.996,152.267 151.161 C 152.267 151.320,152.104 151.387,151.905 151.311 C 151.527 151.166,150.852 152.426,150.946 153.101 C 151.215 155.043,150.918 156.456,150.267 156.332 C 149.887 156.259,149.600 156.329,149.600 156.494 C 149.600 156.653,149.437 156.721,149.238 156.644 C 148.861 156.500,148.186 157.760,148.279 158.435 C 148.307 158.636,148.316 159.430,148.298 160.200 L 148.267 161.600 146.933 161.600 L 145.600 161.600 145.600 162.933 L 145.600 164.267 144.267 164.267 L 142.933 164.267 142.933 165.600 L 142.933 166.933 141.600 166.933 L 140.267 166.933 140.267 168.363 C 140.267 169.744,140.244 169.788,139.600 169.665 C 139.220 169.593,138.933 169.662,138.933 169.827 C 138.933 169.986,138.770 170.054,138.571 169.978 C 138.123 169.806,137.644 170.978,137.635 172.267 C 137.628 173.444,138.231 174.389,139.004 174.409 C 139.332 174.418,140.950 174.490,142.600 174.569 L 145.600 174.714 145.600 175.890 C 145.600 176.815,145.700 177.076,146.067 177.112 C 146.323 177.137,146.713 177.185,146.933 177.217 C 147.153 177.250,149.433 177.315,152.000 177.361 L 156.667 177.445 152.533 177.589 L 148.400 177.733 148.319 179.000 L 148.237 180.267 144.185 180.296 C 141.957 180.312,139.863 180.304,139.533 180.277 C 139.203 180.250,138.933 180.353,138.933 180.506 C 138.933 180.658,138.770 180.721,138.571 180.644 C 138.139 180.478,137.464 181.928,137.695 182.529 C 137.829 182.879,132.068 183.224,130.572 182.956 C 130.082 182.868,129.685 183.504,129.650 184.434 C 129.603 185.688,129.977 185.573,125.800 185.615 C 122.259 185.651,121.489 185.827,121.622 186.572 C 121.645 186.697,121.649 187.130,121.632 187.533 L 121.600 188.267 118.933 188.267 L 116.267 188.267 116.267 189.600 L 116.267 190.933 113.600 190.933 L 110.933 190.933 110.933 192.257 L 110.933 193.581 108.333 193.657 L 105.733 193.733 105.652 195.000 L 105.571 196.267 104.252 196.267 L 102.933 196.267 102.933 197.600 L 102.933 198.933 101.600 198.933 L 100.267 198.933 100.267 200.267 L 100.267 201.600 98.933 201.600 L 97.600 201.600 97.600 203.030 C 97.600 204.411,97.577 204.455,96.933 204.332 C 96.553 204.259,96.267 204.329,96.267 204.494 C 96.267 204.653,96.108 204.722,95.914 204.648 C 95.369 204.439,95.009 205.551,94.965 207.583 C 94.918 209.747,95.001 209.604,93.768 209.650 C 92.838 209.685,92.201 210.082,92.289 210.572 C 92.311 210.697,92.316 212.373,92.298 214.296 L 92.267 217.793 91.600 217.665 C 91.220 217.593,90.933 217.662,90.933 217.827 C 90.933 217.986,90.775 218.056,90.581 217.981 C 89.675 217.634,89.614 218.914,89.604 238.265 L 89.594 257.334 209.397 257.267 L 329.200 257.200 329.255 249.791 C 329.318 241.218,329.384 241.600,327.838 241.600 L 326.667 241.600 326.663 228.867 C 326.659 214.164,326.741 214.933,325.169 214.933 L 324.000 214.933 323.987 212.333 C 323.964 207.941,323.791 206.874,323.113 206.958 C 321.704 207.132,321.333 206.937,321.333 206.022 C 321.333 204.512,321.130 204.267,319.876 204.267 L 318.743 204.267 318.566 202.140 C 318.358 199.648,318.196 199.119,317.699 199.310 C 317.498 199.387,317.333 199.325,317.333 199.173 C 317.333 199.020,317.003 198.934,316.600 198.981 C 315.988 199.053,315.854 198.957,315.792 198.400 C 315.626 196.920,315.445 196.485,315.056 196.634 C 314.842 196.716,314.667 196.658,314.667 196.506 C 314.667 196.353,314.397 196.250,314.067 196.277 C 313.737 196.304,312.837 196.312,312.067 196.296 L 310.667 196.267 310.667 194.933 L 310.667 193.600 309.225 193.600 C 307.987 193.600,307.799 193.534,307.896 193.133 C 308.068 192.421,307.608 191.071,307.180 191.031 C 306.971 191.011,305.810 190.981,304.600 190.964 L 302.400 190.933 302.396 190.067 C 302.391 189.038,302.043 188.393,301.630 188.648 C 301.467 188.749,301.333 188.696,301.333 188.530 C 301.333 188.364,301.063 188.250,300.733 188.277 C 297.891 188.507,294.456 188.242,294.563 187.800 C 294.734 187.088,294.275 185.738,293.847 185.697 C 293.638 185.678,291.888 185.648,289.958 185.631 C 286.760 185.603,286.460 185.559,286.563 185.133 C 286.734 184.421,286.275 183.071,285.847 183.031 C 285.638 183.011,283.888 182.981,281.958 182.964 C 278.760 182.936,278.460 182.892,278.563 182.467 C 278.734 181.755,278.275 180.405,277.847 180.364 C 277.638 180.344,275.877 180.314,273.933 180.297 L 270.400 180.267 270.396 179.400 C 270.391 178.371,270.043 177.726,269.630 177.982 C 269.467 178.082,269.333 178.047,269.333 177.903 C 269.333 177.743,267.552 177.630,264.748 177.613 C 262.226 177.598,260.106 177.528,260.037 177.459 C 259.968 177.390,262.187 177.333,264.969 177.333 C 270.567 177.333,270.667 177.305,270.667 175.690 L 270.667 174.686 273.267 174.610 L 275.867 174.533 275.912 171.099 C 275.967 166.901,275.978 166.933,274.505 166.933 L 273.333 166.933 273.320 165.667 C 273.288 162.628,273.055 161.549,272.447 161.625 C 270.948 161.810,270.698 161.634,270.615 160.333 L 270.533 159.067 269.267 158.985 L 268.000 158.904 267.969 156.852 C 267.952 155.723,267.911 154.680,267.877 154.533 C 267.842 154.387,267.796 154.117,267.774 153.933 C 267.748 153.722,267.294 153.600,266.533 153.600 L 265.333 153.600 265.303 151.533 C 265.286 150.397,265.244 149.347,265.210 149.200 C 265.176 149.053,265.130 148.783,265.107 148.600 C 265.082 148.389,264.627 148.267,263.867 148.267 L 262.667 148.267 262.667 144.133 C 262.667 141.016,262.749 139.995,263.000 139.978 C 265.267 139.831,265.257 139.844,265.309 136.984 C 265.355 134.479,265.258 134.671,266.519 134.572 C 267.806 134.470,267.929 134.223,267.976 131.650 C 268.021 129.146,267.925 129.338,269.186 129.238 C 270.188 129.159,270.689 128.731,270.635 128.000 C 270.619 127.780,270.620 126.160,270.637 124.400 L 270.670 121.200 271.754 121.159 C 273.268 121.101,273.193 121.452,273.266 114.045 C 273.333 107.246,273.199 105.762,272.513 105.697 C 272.304 105.678,271.818 105.648,271.432 105.631 C 270.748 105.601,270.725 105.542,270.545 103.384 C 270.350 101.045,270.117 100.347,269.630 100.648 C 269.467 100.749,269.333 100.690,269.333 100.518 C 269.333 100.327,269.072 100.254,268.667 100.332 L 268.000 100.459 267.969 83.630 C 267.952 74.373,267.911 66.680,267.877 66.533 C 267.842 66.387,267.796 66.117,267.774 65.933 C 267.748 65.722,267.294 65.600,266.533 65.600 L 265.333 65.600 265.320 61.667 C 265.298 55.118,265.280 55.038,263.840 54.984 C 262.598 54.937,262.682 55.079,262.636 52.936 C 262.614 51.931,262.513 50.799,262.411 50.421 C 262.228 49.736,262.128 49.689,260.733 49.631 C 260.035 49.601,260.000 49.536,260.000 48.267 L 260.000 46.933 258.705 46.933 L 257.410 46.933 257.233 44.807 C 257.025 42.315,256.863 41.786,256.366 41.976 C 256.165 42.053,256.000 41.986,256.000 41.827 C 256.000 41.662,255.713 41.593,255.333 41.665 C 254.738 41.779,254.666 41.704,254.663 40.963 C 254.655 39.180,254.458 38.933,253.036 38.933 C 251.745 38.933,251.733 38.926,251.729 38.067 C 251.724 37.038,251.376 36.393,250.963 36.648 C 250.800 36.749,250.667 36.696,250.667 36.530 C 250.667 36.364,250.397 36.250,250.067 36.277 C 249.737 36.304,248.843 36.312,248.081 36.296 L 246.696 36.267 246.615 35.000 L 246.533 33.733 245.133 33.653 C 243.754 33.573,243.733 33.559,243.729 32.719 C 243.724 31.703,243.374 31.061,242.963 31.315 C 242.800 31.416,242.667 31.362,242.667 31.197 C 242.667 31.031,242.397 30.917,242.067 30.944 C 241.737 30.970,240.777 30.979,239.933 30.963 L 238.400 30.933 238.396 30.067 C 238.391 29.038,238.043 28.393,237.630 28.648 C 237.467 28.749,237.333 28.696,237.333 28.530 C 237.333 28.364,237.063 28.250,236.733 28.277 C 236.403 28.304,234.843 28.312,233.267 28.296 L 230.400 28.267 230.396 27.400 C 230.391 26.371,230.043 25.726,229.630 25.982 C 229.467 26.082,229.333 26.039,229.333 25.886 C 229.333 25.694,222.721 25.607,208.133 25.607 C 194.822 25.607,186.933 25.701,186.933 25.862 C 186.933 26.002,186.770 26.054,186.571 25.978 C 186.139 25.812,185.464 27.261,185.695 27.862 C 185.827 28.208,185.445 28.267,183.058 28.267 L 180.267 28.267 180.267 29.600 L 180.267 30.933 177.600 30.933 L 174.933 30.933 174.933 32.267 L 174.933 33.600 172.867 33.632 C 171.730 33.649,170.697 33.645,170.572 33.622 C 170.231 33.561,169.588 34.161,169.628 34.502 C 169.811 36.055,169.648 36.267,168.267 36.267 L 166.933 36.267 166.933 37.600 L 166.933 38.933 165.600 38.933 L 164.267 38.933 164.267 40.267 L 164.267 41.600 162.933 41.600 L 161.600 41.600 161.600 42.933 L 161.600 44.267 160.267 44.267 L 158.933 44.267 158.933 45.696 C 158.933 47.078,158.911 47.122,158.267 46.999 C 157.887 46.926,157.600 46.996,157.600 47.161 C 157.600 47.320,157.437 47.387,157.238 47.311 C 156.861 47.166,156.186 48.426,156.279 49.101 C 156.307 49.302,156.316 50.090,156.298 50.852 L 156.267 52.237 155.000 52.319 L 153.733 52.400 153.658 55.095 L 153.582 57.789 152.924 57.664 C 152.552 57.592,152.267 57.663,152.267 57.827 C 152.267 57.986,152.104 58.054,151.905 57.978 C 151.527 57.833,150.852 59.093,150.946 59.768 C 150.974 59.969,150.959 66.793,150.913 74.933 C 150.868 83.073,150.763 88.533,150.682 87.067 L 150.533 84.400 149.267 84.319 L 148.000 84.237 148.000 74.652 C 148.000 64.301,147.924 64.867,149.286 65.051 C 149.823 65.124,150.388 64.545,150.405 63.905 C 150.413 63.591,150.506 61.953,150.610 60.267 L 150.800 57.200 151.841 57.137 C 153.229 57.052,153.280 56.917,153.321 53.200 L 153.336 51.867 154.420 51.825 C 155.882 51.770,155.947 51.607,155.987 47.948 L 156.000 46.696 157.267 46.615 L 158.533 46.533 158.615 45.267 C 158.698 43.966,158.948 43.790,160.447 43.975 C 160.876 44.028,161.110 43.587,161.261 42.439 C 161.418 41.247,161.331 41.332,162.493 41.241 C 163.692 41.146,163.813 41.025,163.907 39.826 C 164.000 38.641,163.974 38.667,165.186 38.572 C 166.188 38.493,166.689 38.065,166.635 37.333 C 166.546 36.142,166.657 36.000,167.680 36.000 C 168.954 36.000,169.333 35.624,169.333 34.361 L 169.333 33.363 170.593 33.281 L 171.852 33.200 171.950 32.000 C 172.071 30.525,171.748 30.698,174.483 30.644 C 177.000 30.595,177.070 30.556,177.261 29.105 C 177.421 27.890,177.144 28.021,179.650 27.976 C 182.223 27.929,182.470 27.806,182.572 26.519 C 182.671 25.265,182.237 25.402,186.451 25.287 C 190.566 25.175,190.436 25.224,190.492 23.754 L 190.533 22.670 197.733 22.637 C 201.693 22.620,205.113 22.619,205.333 22.635 C 205.553 22.651,205.909 22.552,206.124 22.415 C 206.466 22.195,206.544 21.884,206.645 20.333 C 206.660 20.110,207.149 20.000,208.133 20.000 L 209.600 20.000 209.600 21.200 C 209.600 22.148,209.698 22.410,210.067 22.446 C 210.323 22.471,210.713 22.518,210.933 22.551 C 211.153 22.583,214.592 22.623,218.575 22.638 C 225.676 22.666,225.814 22.677,225.677 23.200 C 225.486 23.933,226.280 25.057,227.004 25.076 C 232.393 25.219,233.600 25.380,233.620 25.957 C 233.688 27.875,233.838 27.948,237.775 27.987 C 239.015 27.999,239.136 28.052,239.011 28.533 C 238.814 29.283,239.614 30.396,240.337 30.380 C 240.665 30.373,241.683 30.451,242.600 30.554 L 244.267 30.741 244.298 31.704 C 244.316 32.233,244.316 32.757,244.298 32.867 C 244.281 32.977,244.417 33.085,244.600 33.107 C 244.783 33.130,245.053 33.176,245.200 33.210 C 245.347 33.244,245.845 33.286,246.308 33.303 C 247.012 33.328,247.127 33.421,247.011 33.866 C 246.816 34.609,247.613 35.727,248.337 35.726 C 248.665 35.726,249.683 35.802,250.600 35.895 L 252.267 36.064 252.267 37.365 L 252.267 38.667 253.600 38.667 L 254.933 38.667 254.933 40.000 L 254.933 41.333 256.267 41.333 L 257.600 41.333 257.631 42.733 C 257.648 43.503,257.639 44.351,257.611 44.617 C 257.519 45.500,258.317 46.367,259.198 46.342 C 260.227 46.312,260.224 46.308,260.301 47.807 C 260.379 49.304,260.169 49.074,261.598 49.236 C 263.066 49.404,262.893 49.096,262.955 51.651 C 263.018 54.283,263.103 54.438,264.496 54.491 L 265.597 54.533 265.598 57.105 C 265.600 59.936,265.639 60.000,267.355 60.000 L 268.267 60.000 268.287 76.600 C 268.311 96.326,268.146 94.428,269.846 94.492 L 270.930 94.533 270.963 96.000 C 270.980 96.807,270.972 97.684,270.944 97.950 C 270.797 99.371,271.509 99.695,274.777 99.695 C 277.954 99.695,278.366 99.561,278.384 98.521 C 278.389 98.234,278.469 97.250,278.562 96.333 L 278.731 94.667 279.733 94.667 C 281.442 94.667,281.366 95.565,281.278 76.358 C 281.199 59.233,281.123 57.686,280.366 57.976 C 280.165 58.053,280.000 57.986,280.000 57.827 C 280.000 57.663,279.714 57.592,279.340 57.664 L 278.680 57.790 278.607 53.762 L 278.533 49.733 277.304 49.654 L 276.076 49.574 275.931 46.187 C 275.775 42.549,275.606 41.756,275.032 41.976 C 274.831 42.053,274.667 41.986,274.667 41.827 C 274.667 41.664,274.382 41.592,274.013 41.663 C 273.395 41.781,273.354 41.712,273.279 40.427 L 273.200 39.067 271.971 38.987 L 270.741 38.907 270.565 36.794 C 270.358 34.315,270.196 33.786,269.699 33.976 C 269.498 34.053,269.333 33.986,269.333 33.827 C 269.333 33.662,269.047 33.593,268.667 33.665 C 268.072 33.779,268.000 33.704,267.996 32.963 C 267.989 31.222,267.776 30.933,266.502 30.933 C 265.406 30.933,265.333 30.888,265.330 30.200 C 265.322 28.561,265.094 28.267,263.836 28.267 C 262.739 28.267,262.666 28.221,262.663 27.533 C 262.655 25.853,262.441 25.600,261.036 25.600 C 259.745 25.600,259.733 25.592,259.729 24.733 C 259.724 23.704,259.376 23.060,258.963 23.315 C 258.800 23.416,258.667 23.362,258.667 23.197 C 258.667 23.031,258.397 22.917,258.067 22.944 C 257.737 22.970,256.843 22.979,256.081 22.963 L 254.696 22.933 254.615 21.667 L 254.533 20.400 253.133 20.319 C 251.754 20.240,251.733 20.226,251.729 19.386 C 251.724 18.370,251.374 17.728,250.963 17.982 C 250.800 18.082,250.667 18.029,250.667 17.863 C 250.667 17.698,250.397 17.584,250.067 17.610 C 249.737 17.637,248.777 17.646,247.933 17.630 L 246.400 17.600 246.396 16.733 C 246.391 15.704,246.043 15.060,245.630 15.315 C 245.467 15.416,245.333 15.362,245.333 15.197 C 245.333 15.031,245.063 14.917,244.733 14.944 C 244.403 14.970,242.903 14.979,241.400 14.963 L 238.667 14.933 238.663 14.200 C 238.653 12.221,238.751 12.267,234.517 12.267 L 230.696 12.267 230.615 11.000 L 230.533 9.733 223.800 9.662 L 217.067 9.591 217.063 8.729 C 217.058 7.704,216.709 7.060,216.296 7.315 C 216.133 7.416,216.000 7.401,216.000 7.282 C 216.000 7.164,214.860 7.067,213.467 7.067 C 212.073 7.067,210.933 7.153,210.933 7.258 M240.319 67.947 L 241.572 68.028 241.653 69.281 L 241.733 70.533 242.986 70.614 L 244.239 70.695 244.319 71.947 L 244.400 73.200 245.667 73.281 L 246.933 73.363 246.954 75.281 C 246.987 78.428,246.990 78.434,248.513 78.492 L 249.597 78.533 249.619 80.533 C 249.654 83.772,249.652 83.767,251.180 83.825 L 252.264 83.867 252.265 93.400 L 252.267 102.933 251.533 102.965 C 251.130 102.982,250.697 102.978,250.572 102.956 C 249.703 102.800,249.112 108.913,249.877 110.150 C 250.332 110.887,256.704 110.811,257.104 110.064 C 257.280 109.735,257.403 109.437,257.378 109.400 C 257.216 109.159,257.378 108.000,257.575 108.000 C 257.708 108.000,257.754 108.240,257.677 108.533 C 257.498 109.218,258.295 110.442,258.882 110.383 C 260.289 110.244,260.267 110.195,260.267 113.430 L 260.267 116.459 259.600 116.332 C 259.220 116.259,258.933 116.329,258.933 116.494 C 258.933 116.653,258.770 116.721,258.571 116.644 C 258.194 116.500,257.519 117.760,257.613 118.435 C 257.640 118.636,257.649 120.030,257.632 121.533 L 257.600 124.267 256.267 124.267 L 254.933 124.267 254.933 126.933 L 254.933 129.600 253.600 129.600 L 252.267 129.600 252.267 131.030 C 252.267 132.411,252.244 132.455,251.600 132.332 C 251.220 132.259,250.933 132.329,250.933 132.494 C 250.933 132.653,250.775 132.722,250.581 132.648 C 250.035 132.439,249.676 133.551,249.632 135.583 C 249.585 137.747,249.668 137.604,248.434 137.650 C 247.504 137.685,246.868 138.082,246.956 138.572 C 246.978 138.697,246.982 139.730,246.965 140.867 L 246.933 142.933 245.600 142.933 L 244.267 142.933 244.267 144.267 C 244.267 145.648,244.055 145.811,242.502 145.628 C 242.161 145.588,241.561 146.231,241.622 146.572 C 241.839 147.777,241.574 148.454,240.933 148.332 C 240.553 148.259,240.267 148.329,240.267 148.494 C 240.267 148.653,240.104 148.721,239.905 148.644 C 239.527 148.500,238.852 149.760,238.946 150.435 C 238.974 150.636,238.982 151.430,238.965 152.200 L 238.933 153.600 237.600 153.600 L 236.267 153.600 236.267 154.933 L 236.267 156.267 234.933 156.267 L 233.600 156.267 233.600 157.600 L 233.600 158.933 232.267 158.933 L 230.933 158.933 230.933 160.267 L 230.933 161.600 229.533 161.630 C 228.763 161.646,227.863 161.637,227.533 161.610 C 227.203 161.584,226.933 161.687,226.933 161.839 C 226.933 161.992,226.770 162.054,226.571 161.978 C 226.139 161.812,225.464 163.261,225.695 163.862 C 225.820 164.190,225.603 164.267,224.553 164.267 C 223.122 164.267,222.933 164.472,222.933 166.022 L 222.933 166.933 221.533 166.963 C 220.763 166.979,219.863 166.970,219.533 166.944 C 219.203 166.917,218.933 167.020,218.933 167.173 C 218.933 167.325,218.770 167.387,218.571 167.311 C 218.139 167.145,217.464 168.594,217.695 169.195 C 217.845 169.588,216.254 169.777,214.200 169.610 C 213.870 169.584,213.600 169.687,213.600 169.839 C 213.600 169.992,213.437 170.054,213.238 169.978 C 212.805 169.812,212.131 171.261,212.361 171.862 C 212.496 172.213,211.958 172.267,208.273 172.267 L 204.029 172.267 203.948 171.000 L 203.867 169.733 202.467 169.653 C 201.087 169.573,201.067 169.559,201.063 168.719 C 201.058 167.703,200.708 167.061,200.296 167.315 C 200.133 167.416,200.000 167.384,200.000 167.245 C 200.000 167.106,199.140 166.979,198.089 166.963 C 195.835 166.929,196.072 167.076,195.903 165.598 C 195.828 164.939,195.759 164.370,195.750 164.333 C 195.741 164.297,195.133 164.267,194.400 164.267 C 193.074 164.267,193.067 164.262,193.063 163.400 C 193.058 162.371,192.710 161.726,192.296 161.982 C 192.133 162.082,192.000 162.029,192.000 161.863 C 192.000 161.698,191.730 161.584,191.400 161.610 C 191.070 161.637,190.177 161.646,189.415 161.630 L 188.029 161.600 187.948 160.333 L 187.867 159.067 186.533 158.909 C 185.765 158.817,186.981 158.733,189.400 158.709 C 193.585 158.667,193.600 158.669,193.620 159.267 C 193.650 160.130,193.800 160.822,194.002 161.024 C 194.461 161.484,216.372 161.186,216.753 160.715 C 217.656 159.599,217.310 145.614,216.389 145.967 C 216.175 146.049,216.000 146.014,216.000 145.888 C 216.000 145.762,215.140 145.646,214.089 145.630 C 211.835 145.595,212.072 145.743,211.903 144.264 C 211.828 143.606,211.759 143.037,211.750 143.000 C 211.741 142.963,210.593 142.933,209.200 142.933 L 206.667 142.933 206.663 142.200 C 206.653 140.236,206.714 140.267,202.797 140.267 C 198.898 140.267,198.933 140.251,198.933 142.012 L 198.933 142.914 196.333 142.990 L 193.733 143.067 193.652 144.333 L 193.571 145.600 190.652 145.600 L 187.733 145.600 187.729 144.733 C 187.724 143.704,187.376 143.060,186.963 143.315 C 186.800 143.416,186.667 143.362,186.667 143.197 C 186.667 143.031,186.397 142.917,186.067 142.944 C 185.737 142.970,184.843 142.979,184.081 142.963 L 182.696 142.933 182.615 141.667 L 182.533 140.400 181.267 140.319 C 180.098 140.244,179.998 140.182,179.969 139.519 C 179.952 139.123,179.911 138.680,179.877 138.533 C 179.842 138.387,179.796 138.117,179.774 137.933 C 179.748 137.722,179.294 137.600,178.533 137.600 C 177.403 137.600,177.333 137.557,177.330 136.867 C 177.321 135.187,177.108 134.933,175.702 134.933 C 174.412 134.933,174.400 134.926,174.396 134.067 C 174.391 133.038,174.043 132.393,173.630 132.648 C 173.467 132.749,173.333 132.696,173.333 132.530 C 173.333 132.358,173.018 132.265,172.600 132.314 C 171.988 132.386,171.854 132.290,171.792 131.733 C 171.626 130.253,171.445 129.818,171.056 129.967 C 170.842 130.049,170.667 129.992,170.667 129.839 C 170.667 129.687,170.337 129.600,169.933 129.648 C 169.321 129.719,169.188 129.623,169.125 129.067 C 168.960 127.587,168.778 127.151,168.389 127.301 C 168.175 127.383,168.000 127.320,168.000 127.161 C 168.000 126.996,167.713 126.926,167.333 126.999 C 166.738 127.112,166.666 127.037,166.663 126.296 C 166.655 124.560,166.441 124.267,165.184 124.267 L 164.029 124.267 163.948 123.000 L 163.867 121.733 162.600 121.652 L 161.333 121.571 161.330 118.185 C 161.325 113.684,161.297 113.600,159.836 113.600 L 158.667 113.600 158.667 112.067 L 158.667 110.533 161.534 110.496 C 167.022 110.423,166.459 111.174,166.505 103.867 C 166.535 99.017,166.363 97.721,165.722 97.967 C 165.508 98.049,165.333 97.986,165.333 97.827 C 165.333 97.662,165.047 97.593,164.667 97.665 C 164.300 97.735,164.000 97.696,164.000 97.578 C 164.000 97.459,164.570 97.326,165.267 97.281 L 166.533 97.200 166.615 95.933 C 166.698 94.633,166.948 94.457,168.447 94.642 C 168.876 94.695,169.110 94.254,169.261 93.105 C 169.331 92.571,169.415 92.105,169.446 92.071 C 169.477 92.036,175.855 92.002,183.618 91.995 C 198.374 91.981,198.480 91.972,198.569 90.749 C 198.599 90.337,198.633 89.857,198.645 89.682 C 198.661 89.450,200.206 89.330,204.333 89.239 C 207.450 89.171,210.257 89.102,210.572 89.086 C 211.216 89.052,211.790 88.485,211.718 87.953 C 211.548 86.701,211.614 86.667,214.213 86.667 C 217.027 86.667,217.333 86.504,217.333 85.013 L 217.333 84.000 219.680 84.000 C 222.350 84.000,222.667 83.825,222.667 82.347 L 222.667 81.333 223.933 81.320 C 227.608 81.281,227.770 81.216,227.825 79.754 C 227.867 78.649,228.223 78.447,229.786 78.644 C 230.054 78.677,230.851 77.606,230.712 77.400 C 230.222 76.675,230.770 76.023,231.933 75.948 L 233.200 75.867 233.281 74.600 L 233.363 73.333 234.361 73.333 C 235.624 73.333,236.000 72.954,236.000 71.680 C 236.000 70.657,236.142 70.546,237.333 70.635 C 238.017 70.686,238.512 70.197,238.569 69.416 C 238.599 69.004,238.652 67.887,238.687 66.933 L 238.750 65.200 238.909 66.533 L 239.067 67.867 240.319 67.947 M180.287 172.600 C 180.353 174.534,180.507 174.612,184.319 174.653 L 185.571 174.667 185.652 175.933 L 185.733 177.200 187.000 177.281 L 188.267 177.363 188.267 178.548 C 188.267 179.482,188.366 179.743,188.733 179.779 C 188.990 179.804,189.380 179.851,189.600 179.884 C 189.820 179.917,190.803 179.956,191.785 179.972 L 193.571 180.000 193.652 181.267 L 193.733 182.533 196.333 182.610 L 198.933 182.686 198.933 183.610 C 198.933 184.912,198.933 184.912,199.320 185.129 C 199.603 185.287,213.957 185.250,215.854 185.087 C 216.659 185.017,217.032 184.573,217.008 183.712 C 216.978 182.681,216.838 182.740,219.672 182.600 C 222.526 182.459,222.438 182.506,222.492 181.087 L 222.533 180.003 223.867 179.988 C 227.608 179.946,227.770 179.883,227.825 178.447 L 227.867 177.390 229.600 177.227 C 230.553 177.137,231.591 177.062,231.905 177.060 C 232.542 177.056,233.124 176.494,233.051 175.953 C 232.901 174.840,233.058 174.667,234.213 174.667 C 235.624 174.667,236.000 174.319,236.000 173.013 L 236.000 172.000 238.800 172.000 L 241.600 172.000 241.600 172.933 C 241.600 173.447,241.590 173.943,241.577 174.037 C 241.524 174.434,242.327 174.602,244.484 174.645 C 245.746 174.670,246.801 174.715,246.828 174.745 C 246.855 174.775,246.938 175.258,247.012 175.817 C 247.196 177.213,247.378 177.282,251.000 177.320 L 252.267 177.333 252.267 178.785 L 252.267 180.237 251.000 180.319 L 249.733 180.400 249.661 185.652 L 249.589 190.905 248.328 190.986 L 247.067 191.067 246.993 195.000 L 246.919 198.933 246.193 198.965 C 245.793 198.982,245.333 198.981,245.169 198.961 C 244.828 198.921,244.228 199.565,244.289 199.905 C 244.630 201.805,244.218 204.450,243.600 204.332 C 243.220 204.259,242.933 204.329,242.933 204.494 C 242.933 204.653,242.770 204.721,242.571 204.644 C 242.194 204.500,241.519 205.760,241.613 206.435 C 241.882 208.376,241.585 209.790,240.933 209.665 C 240.553 209.593,240.267 209.662,240.267 209.827 C 240.267 209.986,240.108 210.056,239.914 209.981 C 239.369 209.772,239.009 210.884,238.965 212.916 C 238.918 215.081,239.001 214.937,237.768 214.983 C 236.838 215.018,236.201 215.415,236.289 215.905 C 236.311 216.031,236.316 217.063,236.298 218.200 L 236.267 220.267 234.933 220.267 L 233.600 220.267 233.600 221.600 L 233.600 222.933 232.267 222.933 L 230.933 222.933 230.933 224.267 L 230.933 225.600 229.762 225.600 C 228.470 225.600,228.267 225.836,228.267 227.341 C 228.267 228.221,228.244 228.239,227.000 228.319 L 225.733 228.400 225.653 229.653 L 225.572 230.905 224.319 230.986 L 223.067 231.067 222.986 232.319 L 222.905 233.572 221.653 233.653 L 220.400 233.733 220.319 235.000 L 220.237 236.267 219.081 236.267 C 217.802 236.267,217.600 236.506,217.600 238.022 L 217.600 238.933 216.267 238.933 L 214.933 238.933 214.933 240.267 L 214.933 241.600 212.429 241.600 C 209.670 241.600,209.600 241.644,209.600 243.355 C 209.600 243.856,209.480 244.267,209.333 244.267 C 209.187 244.267,209.065 243.877,209.063 243.400 C 209.058 242.371,208.710 241.726,208.296 241.982 C 208.133 242.082,208.000 242.029,208.000 241.863 C 208.000 241.698,207.730 241.584,207.400 241.610 C 207.070 241.637,206.110 241.646,205.267 241.630 L 203.733 241.600 203.733 240.699 C 203.733 239.823,203.195 239.027,202.842 239.380 C 202.746 239.477,202.667 239.407,202.667 239.225 C 202.667 239.044,202.397 238.917,202.067 238.944 C 201.737 238.970,200.837 238.979,200.067 238.963 L 198.667 238.933 198.667 237.600 L 198.667 236.267 197.333 236.267 L 196.000 236.267 196.000 234.933 L 196.000 233.600 194.667 233.600 L 193.333 233.600 193.333 232.267 L 193.333 230.933 192.000 230.933 L 190.667 230.933 190.667 229.600 L 190.667 228.267 189.333 228.267 L 188.000 228.267 188.000 226.933 L 188.000 225.600 186.705 225.600 L 185.410 225.600 185.233 223.474 C 185.025 220.982,184.863 220.452,184.366 220.643 C 184.165 220.720,184.000 220.653,184.000 220.494 C 184.000 220.329,183.713 220.259,183.333 220.332 C 182.742 220.445,182.663 220.365,182.636 219.630 C 182.619 219.173,182.577 218.680,182.543 218.533 C 182.509 218.387,182.463 218.117,182.441 217.933 C 182.415 217.724,181.968 217.600,181.238 217.600 L 180.077 217.600 179.899 215.474 C 179.692 212.982,179.529 212.452,179.032 212.643 C 178.831 212.720,178.667 212.653,178.667 212.494 C 178.667 212.330,178.382 212.259,178.013 212.330 C 177.395 212.448,177.354 212.379,177.279 211.094 L 177.200 209.733 175.943 209.652 L 174.686 209.572 174.609 206.986 L 174.533 204.400 173.267 204.319 L 172.000 204.237 171.996 200.852 C 171.992 196.354,171.963 196.267,170.509 196.267 L 169.348 196.267 169.274 192.333 L 169.200 188.400 167.944 188.319 L 166.687 188.238 166.610 182.812 L 166.533 177.386 168.267 177.226 C 169.220 177.137,170.234 177.060,170.521 177.053 C 171.310 177.036,171.699 176.584,171.674 175.712 C 171.645 174.681,171.505 174.740,174.339 174.600 C 177.193 174.459,177.105 174.506,177.159 173.087 L 177.200 172.003 178.733 172.002 C 180.140 172.000,180.268 172.050,180.287 172.600 " stroke="none" fill="#bb55d4" fill-rule="evenodd"></path></g></svg>